<svg width="20" height="20" viewBox="0 0 20 20" fill="none" xmlns="http://www.w3.org/2000/svg">
<path d="M3.33398 4.16683C3.33398 3.94582 3.42178 3.73385 3.57806 3.57757C3.73434 3.42129 3.9463 3.3335 4.16732 3.3335H7.50065C7.72166 3.3335 7.93363 3.42129 8.08991 3.57757C8.24619 3.73385 8.33398 3.94582 8.33398 4.16683V7.50016C8.33398 7.72118 8.24619 7.93314 8.08991 8.08942C7.93363 8.2457 7.72166 8.3335 7.50065 8.3335H4.16732C3.9463 8.3335 3.73434 8.2457 3.57806 8.08942C3.42178 7.93314 3.33398 7.72118 3.33398 7.50016V4.16683Z" stroke="white" stroke-linecap="round" stroke-linejoin="round"/>
<path d="M11.6673 4.16683C11.6673 3.94582 11.7551 3.73385 11.9114 3.57757C12.0677 3.42129 12.2796 3.3335 12.5007 3.3335H15.834C16.055 3.3335 16.267 3.42129 16.4232 3.57757C16.5795 3.73385 16.6673 3.94582 16.6673 4.16683V7.50016C16.6673 7.72118 16.5795 7.93314 16.4232 8.08942C16.267 8.2457 16.055 8.3335 15.834 8.3335H12.5007C12.2796 8.3335 12.0677 8.2457 11.9114 8.08942C11.7551 7.93314 11.6673 7.72118 11.6673 7.50016V4.16683Z" stroke="white" stroke-linecap="round" stroke-linejoin="round"/>
<path d="M3.33398 12.5002C3.33398 12.2791 3.42178 12.0672 3.57806 11.9109C3.73434 11.7546 3.9463 11.6668 4.16732 11.6668H7.50065C7.72166 11.6668 7.93363 11.7546 8.08991 11.9109C8.24619 12.0672 8.33398 12.2791 8.33398 12.5002V15.8335C8.33398 16.0545 8.24619 16.2665 8.08991 16.4228C7.93363 16.579 7.72166 16.6668 7.50065 16.6668H4.16732C3.9463 16.6668 3.73434 16.579 3.57806 16.4228C3.42178 16.2665 3.33398 16.0545 3.33398 15.8335V12.5002Z" stroke="white" stroke-linecap="round" stroke-linejoin="round"/>
<path d="M11.6673 12.5002C11.6673 12.2791 11.7551 12.0672 11.9114 11.9109C12.0677 11.7546 12.2796 11.6668 12.5007 11.6668H15.834C16.055 11.6668 16.267 11.7546 16.4232 11.9109C16.5795 12.0672 16.6673 12.2791 16.6673 12.5002V15.8335C16.6673 16.0545 16.5795 16.2665 16.4232 16.4228C16.267 16.579 16.055 16.6668 15.834 16.6668H12.5007C12.2796 16.6668 12.0677 16.579 11.9114 16.4228C11.7551 16.2665 11.6673 16.0545 11.6673 15.8335V12.5002Z" stroke="white" stroke-linecap="round" stroke-linejoin="round"/>
</svg>
